HIERARCHY
ROOT Hips
{
  OFFSET 52.4579 95.6114 12.9141
  CHANNELS 6 Xposition Yposition Zposition Zrotation Xrotation Yrotation
  JOINT spine
  {
    OFFSET 0 7.96568 0.458067
    CHANNELS 3 Zrotation Xrotation Yrotation
    JOINT spine1
    {
      OFFSET 0 10.2431 0
      CHANNELS 3 Zrotation Xrotation Yrotation
      JOINT spine2
      {
        OFFSET 0 9.81475 0
        CHANNELS 3 Zrotation Xrotation Yrotation
        JOINT Neck
        {
          OFFSET 0 25.1986 1.20138
          CHANNELS 3 Zrotation Xrotation Yrotation
          JOINT Head
          {
            OFFSET 0 7.61315 0
            CHANNELS 3 Zrotation Xrotation Yrotation
            End Site
            {
              OFFSET 0 18.4281 -6.07733
            }
          }
        }
        JOINT RightShoulder
        {
          OFFSET -4.1327 10.5992 -0.575451
          CHANNELS 3 Zrotation Xrotation Yrotation
          JOINT RightArm
          {
            OFFSET 0 13.9018 0
            CHANNELS 3 Zrotation Xrotation Yrotation
            JOINT RightArmRoll
            {
              OFFSET 0 7.01789 0
              CHANNELS 3 Zrotation Xrotation Yrotation
              JOINT RightForeArm
              {
                OFFSET 0 20.4406 0
                CHANNELS 3 Zrotation Xrotation Yrotation
                JOINT RightForeArmRoll
                {
                  OFFSET 0 7.87515 0
                  CHANNELS 3 Zrotation Xrotation Yrotation
                  JOINT RightHand
                  {
                    OFFSET 0 15.8037 0
                    CHANNELS 3 Zrotation Xrotation Yrotation
                    End Site
                    {
                      OFFSET 0 0 0
                    }
                  }
                }
              }
            }
          }
        }
        JOINT LeftShoulder
        {
          OFFSET 4.1327 10.5992 -0.575451
          CHANNELS 3 Zrotation Xrotation Yrotation
          JOINT LeftArm
          {
            OFFSET 0 13.9018 0
            CHANNELS 3 Zrotation Xrotation Yrotation
            JOINT LeftArmRoll
            {
              OFFSET 0 7.01788 0
              CHANNELS 3 Zrotation Xrotation Yrotation
              JOINT LeftForeArm
              {
                OFFSET 0 20.4406 0
                CHANNELS 3 Zrotation Xrotation Yrotation
                JOINT LeftForeArmRoll
                {
                  OFFSET 0 7.87515 0
                  CHANNELS 3 Zrotation Xrotation Yrotation
                  JOINT LeftHand
                  {
                    OFFSET 0 15.8037 0
                    CHANNELS 3 Zrotation Xrotation Yrotation
                    End Site
                    {
                      OFFSET 0 0 0
                    }
                  }
                }
              }
            }
          }
        }
      }
    }
  }
  JOINT RightUpLeg
  {
    OFFSET -7.06047 -1.2947 -1.08609
    CHANNELS 3 Zrotation Xrotation Yrotation
    JOINT RightUpLegRoll
    {
      OFFSET 0 18.5308 0
      CHANNELS 3 Zrotation Xrotation Yrotation
      JOINT RightLeg
      {
        OFFSET 0 -22.9476 0
        CHANNELS 3 Zrotation Xrotation Yrotation
        JOINT RightLegRoll
        {
          OFFSET 0 23.0226 0
          CHANNELS 3 Zrotation Xrotation Yrotation
          JOINT RightFoot
          {
            OFFSET 0 19.1625 0
            CHANNELS 3 Zrotation Xrotation Yrotation
            JOINT RightToeBase
            {
              OFFSET 0 16.0188 0
              CHANNELS 3 Zrotation Xrotation Yrotation
              End Site
              {
                OFFSET 0.00678979 7.75782 -0.894206
              }
            }
          }
        }
      }
    }
  }
  JOINT LeftUpLeg
  {
    OFFSET 7.06047 -1.2947 -1.08609
    CHANNELS 3 Zrotation Xrotation Yrotation
    JOINT LeftUpLegRoll
    {
      OFFSET 0 18.5309 0
      CHANNELS 3 Zrotation Xrotation Yrotation
      JOINT LeftLeg
      {
        OFFSET 0 22.9475 0
        CHANNELS 3 Zrotation Xrotation Yrotation
        JOINT LeftLegRoll
        {
          OFFSET 0 23.2355 0
          CHANNELS 3 Zrotation Xrotation Yrotation
          JOINT LeftFoot
          {
            OFFSET 0 18.9496 0
            CHANNELS 3 Zrotation Xrotation Yrotation
            JOINT LeftToeBase
            {
              OFFSET 0 16.0188 0
              CHANNELS 3 Zrotation Xrotation Yrotation
              End Site
              {
                OFFSET -0.0304289 7.75782 -0.894207
              }
            }
          }
        }
      }
    }
  }
}
MOTION
Frames: 9
Frame Time: 0.00208333
52.0083 95.6459 9.65485 -0.501432 0.25968 2.34402 0.252176 -2.38793 -0.0552284 0.48565 -0.77339 -0.14587 0.487462 0.871648 -0.154014 -1.35419 19.786 -0.056095 2.76229 -0.659928 -0.204367 70.9972 0.91934 -1.00707 98.8439 15.5714 30.9359 6.57681e-006 -1.67563e-006 5.67279e-007 -3.62122 2.09316 0.561027 -4.7832e-006 -1.60063e-006 -3.00668 8.03007 -4.9514 0.69762 -72.3697 -0.465988 1.81039 -98.6391 16.5451 -27.1163 -1.39841e-005 1.41967e-006 2.56823e-008 2.37862 1.15928 -0.601501 1.43182e-005 9.43722e-007 3.00311 -8.03016 -4.95139 -0.697643 175.287 0.551006 -2.17198 180 7.01542e-015 178.903 177.686 4.01338 179.606 -4.12855e-006 2.17977e-006 0.0396615 -18.8782 68.1903 19.6935 8.13649 25.2326 -3.48774 -173.489 2.86468 0.495625 4.5067e-006 -1.99009e-005 -1.07163 -1.64691 -6.89204 0.181707 2.69805e-006 2.18376e-006 -0.0446308 18.266 68.5307 -19.9623 -8.13649 25.2327 3.48774 
52.0114 95.6481 9.66522 -0.498713 0.257478 2.35163 0.252176 -2.38965 -0.0553074 0.484978 -0.776837 -0.145924 0.486822 0.868202 -0.154058 -1.37132 19.8111 -0.0476773 2.77167 -0.681292 -0.199771 70.9738 0.908021 -1.0097 98.8135 15.5233 30.994 6.57681e-006 -1.67563e-006 5.67279e-007 -3.64681 2.13369 0.566303 -4.7832e-006 -1.60063e-006 -3.00668 8.03007 -4.9514 0.69762 -72.3609 -0.479144 1.81561 -98.586 16.5482 -27.1929 -1.39841e-005 1.41967e-006 2.56823e-008 2.43826 1.18071 -0.608547 1.43182e-005 9.43722e-007 3.00311 -8.03016 -4.95139 -0.697643 175.285 0.531039 -2.17154 180 7.01542e-015 178.903 177.686 3.99077 179.606 -4.12855e-006 2.17977e-006 0.0396615 -18.8795 68.1842 19.6884 8.13649 25.2326 -3.48774 -173.484 2.85583 0.478697 4.5067e-006 -1.99009e-005 -1.0722 -1.66557 -6.88409 0.179044 2.69805e-006 2.18376e-006 -0.0451818 18.2824 68.5293 -19.9619 -8.13649 25.2327 3.48774 
52.0084 95.646 9.66588 -0.495797 0.255281 2.35922 0.252177 -2.39136 -0.0554287 0.484266 -0.780266 -0.146084 0.486159 0.864773 -0.154207 -1.38953 19.8362 -0.0389017 2.78208 -0.703108 -0.195035 70.9502 0.896601 -1.01235 98.7855 15.4756 31.0501 6.57681e-006 -1.67563e-006 5.67279e-007 -3.67153 2.17421 0.571446 -4.7832e-006 -1.60063e-006 -3.00668 8.03007 -4.9514 0.69762 -72.3524 -0.492857 1.82114 -98.5347 16.5519 -27.2687 -1.39841e-005 1.41967e-006 2.56823e-008 2.49823 1.20186 -0.615613 1.43182e-005 9.43722e-007 3.00311 -8.03016 -4.95139 -0.697643 175.284 0.510801 -2.17107 180 7.01542e-015 178.903 177.687 3.96763 179.606 -4.12855e-006 2.17977e-006 0.0396615 -18.8807 68.1778 19.6832 8.13649 25.2326 -3.48774 -173.479 2.84864 0.462933 4.5067e-006 -1.99009e-005 -1.0727 -1.68308 -6.87895 0.176499 2.69805e-006 2.18376e-006 -0.0457803 18.2997 68.5295 -19.963 -8.13649 25.2327 3.48774 
52.0058 95.6486 9.66693 -0.492745 0.253086 2.36679 0.252177 -2.39307 -0.0555796 0.483526 -0.783683 -0.146318 0.485481 0.861357 -0.15443 -1.40852 19.8613 -0.0298747 2.79319 -0.725242 -0.1902 70.9265 0.885109 -1.01501 98.7591 15.4283 31.105 6.57681e-006 -1.67563e-006 5.67279e-007 -3.69565 2.21472 0.576496 -4.7832e-006 -1.60063e-006 -3.00668 8.03007 -4.9514 0.69762 -72.3442 -0.506959 1.82687 -98.4846 16.5559 -27.3439 -1.39841e-005 1.41967e-006 2.56823e-008 2.55842 1.22282 -0.622694 1.43182e-005 9.43722e-007 3.00311 -8.03016 -4.95139 -0.697643 175.282 0.490372 -2.17057 180 7.01542e-015 178.903 177.688 3.94412 179.606 -4.12855e-006 2.17977e-006 0.0396615 -18.882 68.1714 19.6779 8.13649 25.2326 -3.48774 -173.475 2.84261 0.447984 4.5067e-006 -1.99009e-005 -1.07314 -1.69977 -6.87576 0.174034 2.69805e-006 2.18376e-006 -0.0464122 18.3177 68.5309 -19.9651 -8.13649 25.2327 3.48774 
52.0014 95.6561 9.67889 -0.489613 0.250893 2.37435 0.252178 -2.39478 -0.0557474 0.48277 -0.787092 -0.146595 0.484793 0.857948 -0.154695 -1.42794 19.8865 -0.0207026 2.80471 -0.747558 -0.185309 70.9026 0.873575 -1.01768 98.7336 15.3812 31.1591 6.57681e-006 -1.67563e-006 5.67279e-007 -3.71943 2.25522 0.581494 -4.7832e-006 -1.60063e-006 -3.00668 8.03007 -4.9514 0.69762 -72.3361 -0.521283 1.83272 -98.4352 16.5602 -27.4188 -1.39841e-005 1.41967e-006 2.56823e-008 2.61874 1.24366 -0.629783 1.43182e-005 9.43722e-007 3.00311 -8.03016 -4.95139 -0.697643 175.28 0.469835 -2.17006 180 7.01542e-015 178.903 177.689 3.92041 179.607 -4.12855e-006 2.17977e-006 0.0396615 -18.8832 68.1649 19.6726 8.13649 25.2326 -3.48774 -173.471 2.83725 0.4335 4.5067e-006 -1.99009e-005 -1.07354 -1.71601 -6.8737 0.171616 2.69805e-006 2.18376e-006 -0.0470631 18.336 68.5329 -19.9678 -8.13649 25.2327 3.48774 
51.9996 95.6526 9.67944 -0.486462 0.248699 2.38191 0.252178 -2.39648 -0.0559194 0.482009 -0.7905 -0.146883 0.484103 0.85454 -0.154972 -1.44749 19.9116 -0.0114921 2.81634 -0.769919 -0.180404 70.8788 0.862032 -1.02035 98.7085 15.3342 31.213 6.57681e-006 -1.67563e-006 5.67279e-007 -3.74313 2.29571 0.586478 -4.7832e-006 -1.60063e-006 -3.00668 8.03007 -4.9514 0.69762 -72.3281 -0.535663 1.83859 -98.3859 16.5645 -27.4937 -1.39841e-005 1.41967e-006 2.56823e-008 2.6791 1.26448 -0.636874 1.43182e-005 9.43722e-007 3.00311 -8.03016 -4.95139 -0.697643 175.278 0.449271 -2.16955 180 7.01542e-015 178.903 177.69 3.89667 179.607 -4.12855e-006 2.17977e-006 0.0396615 -18.8845 68.1584 19.6673 8.13649 25.2326 -3.48774 -173.467 2.83206 0.419133 4.5067e-006 -1.99009e-005 -1.07394 -1.73212 -6.87191 0.16921 2.69805e-006 2.18376e-006 -0.0477187 18.3544 68.5352 -19.9706 -8.13649 25.2327 3.48774 
52.0042 95.6535 9.69462 -0.483349 0.246506 2.38947 0.252178 -2.39819 -0.056083 0.481257 -0.793912 -0.147149 0.483417 0.851129 -0.155226 -1.46682 19.9368 -0.00234977 2.82777 -0.792189 -0.175527 70.855 0.85051 -1.02302 98.6829 15.2871 31.2673 6.57681e-006 -1.67563e-006 5.67279e-007 -3.76701 2.33621 0.59149 -4.7832e-006 -1.60063e-006 -3.00668 8.03007 -4.9514 0.69762 -72.3199 -0.549932 1.84441 -98.3363 16.5686 -27.5687 -1.39841e-005 1.41967e-006 2.56823e-008 2.7394 1.28536 -0.643961 1.43182e-005 9.43722e-007 3.00311 -8.03016 -4.95139 -0.697643 175.276 0.42876 -2.16904 180 7.01542e-015 178.903 177.691 3.873 179.607 -4.12855e-006 2.17977e-006 0.0396615 -18.8858 68.152 19.662 8.13649 25.2326 -3.48774 -173.463 2.82653 0.404533 4.5067e-006 -1.99009e-005 -1.07436 -1.74847 -6.86956 0.166781 2.69805e-006 2.18376e-006 -0.0483649 18.3726 68.537 -19.9732 -8.13649 25.2327 3.48774 
52.0031 95.6541 9.69771 -0.480333 0.24431 2.39705 0.252179 -2.3999 -0.0562254 0.480524 -0.797332 -0.147362 0.482743 0.847709 -0.155429 -1.48562 19.9619 0.00661771 2.8387 -0.814232 -0.17072 70.8312 0.839038 -1.02568 98.6564 15.2398 31.3225 6.57681e-006 -1.67563e-006 5.67279e-007 -3.79134 2.37672 0.59657 -4.7832e-006 -1.60063e-006 -3.00668 8.03007 -4.9514 0.69762 -72.3116 -0.563922 1.85009 -98.2857 16.5723 -27.6441 -1.39841e-005 1.41967e-006 2.56823e-008 2.79955 1.30637 -0.651039 1.43182e-005 9.43722e-007 3.00311 -8.03016 -4.95139 -0.697643 175.274 0.408386 -2.16855 180 7.01542e-015 178.903 177.691 3.8496 179.607 -4.12855e-006 2.17977e-006 0.0396615 -18.887 68.1456 19.6568 8.13649 25.2326 -3.48774 -173.459 2.82017 0.389352 4.5067e-006 -1.99009e-005 -1.07481 -1.7654 -6.86582 0.164293 2.69805e-006 2.18376e-006 -0.0489872 18.3904 68.5381 -19.975 -8.13649 25.2327 3.48774 
52.0022 95.6549 9.70081 -0.477473 0.242112 2.40464 0.252179 -2.40161 -0.056334 0.479824 -0.800766 -0.147491 0.482087 0.844275 -0.155546 -1.50357 19.987 0.0153036 2.84882 -0.835913 -0.166026 70.8077 0.827648 -1.02832 98.6282 15.1922 31.3792 6.57681e-006 -1.67563e-006 5.67279e-007 -3.81637 2.41725 0.601756 -4.7832e-006 -1.60063e-006 -3.00668 8.03007 -4.9514 0.69762 -72.303 -0.577467 1.85552 -98.2337 16.5756 -27.7201 -1.39841e-005 1.41967e-006 2.56823e-008 2.85945 1.3276 -0.6581 1.43182e-005 9.43722e-007 3.00311 -8.03016 -4.95139 -0.697643 175.272 0.388229 -2.16809 180 7.01542e-015 178.903 177.692 3.82662 179.607 -4.12855e-006 2.17977e-006 0.0396615 -18.8883 68.1393 19.6516 8.13649 25.2326 -3.48774 -173.454 2.81248 0.37324 4.5067e-006 -1.99009e-005 -1.07533 -1.78324 -6.85983 0.161713 2.69805e-006 2.18376e-006 -0.0495715 18.4074 68.5378 -19.9756 -8.13649 25.2327 3.48774 
